<svg xmlns="http://www.w3.org/2000/svg" xmlns:xlink="http://www.w3.org/1999/xlink" width="444" zoomAndPan="magnify" viewBox="0 0 333 344.250003" height="459" preserveAspectRatio="xMidYMid meet" version="1.0"><defs><clipPath id="83a89fe99f"><path d="M 1 0 L 326 0 L 326 342.753906 L 1 342.753906 Z M 1 0 " clip-rule="nonzero"/></clipPath><clipPath id="213dbfba31"><path d="M 1 0 L 326 0 L 326 342.753906 L 1 342.753906 Z M 1 0 " clip-rule="nonzero"/></clipPath></defs><path fill="#cdeac0" d="M 192.226562 188.070312 C 192.226562 188.070312 187.070312 134.289062 230.042969 112.4375 C 230.042969 112.4375 181.914062 123.730469 177.984375 185.613281 C 177.984375 185.613281 157.847656 153.691406 105.789062 172.355469 C 105.789062 172.355469 171.664062 159.277344 175.527344 221.714844 C 177.886719 259.78125 164.722656 269.109375 164.722656 269.109375 C 164.722656 269.109375 174.792969 278.191406 190.140625 281.511719 C 205.488281 284.824219 218.132812 281.511719 218.132812 281.511719 C 218.132812 281.511719 193.699219 268.617188 193.699219 230.554688 C 193.699219 192.492188 219.972656 164.007812 261.472656 173.339844 C 261.476562 173.332031 224.886719 150.988281 192.226562 188.070312 Z M 192.226562 188.070312 " fill-opacity="1" fill-rule="nonzero"/><path fill="#cdeac0" d="M 253.0625 216.738281 C 270.007812 173.273438 229.859375 181.929688 229.859375 181.929688 C 241.117188 186.71875 245.882812 197.15625 245.882812 197.15625 C 238.640625 189.914062 225.625 188.011719 225.625 188.011719 C 220.101562 215.816406 253.0625 216.738281 253.0625 216.738281 Z M 253.0625 216.738281 " fill-opacity="1" fill-rule="nonzero"/><path fill="#cdeac0" d="M 285.019531 202.003906 C 293.644531 199.792969 303.835938 197.707031 303.835938 197.707031 C 298.066406 191.628906 298.25 183.992188 289.839844 177.632812 C 281.152344 171.0625 268.109375 177.632812 268.109375 177.632812 C 284.191406 182.480469 287.96875 190.675781 287.96875 190.675781 C 279.832031 184.386719 265.316406 181.226562 265.316406 181.226562 C 261.476562 193.101562 276.414062 204.210938 285.019531 202.003906 Z M 285.019531 202.003906 " fill-opacity="1" fill-rule="nonzero"/><path fill="#cdeac0" d="M 271.941406 213.605469 C 272.402344 203.382812 260.433594 204.492188 260.433594 204.492188 C 260.433594 215.265625 271.941406 213.605469 271.941406 213.605469 Z M 271.941406 213.605469 " fill-opacity="1" fill-rule="nonzero"/><path fill="#cdeac0" d="M 285.847656 168.667969 C 301.78125 176.3125 304.542969 165.171875 304.542969 165.171875 C 295.976562 154.949219 285.847656 168.667969 285.847656 168.667969 Z M 285.847656 168.667969 " fill-opacity="1" fill-rule="nonzero"/><path fill="#cdeac0" d="M 258.039062 156.882812 C 258.039062 156.882812 268.261719 153.839844 273.878906 146.75 C 279.496094 139.660156 285.847656 136.992188 285.847656 136.992188 C 285.847656 136.992188 278.390625 144.449219 274.523438 149.976562 C 270.65625 155.5 261.476562 161.382812 261.476562 161.382812 C 297.941406 170.183594 298.679688 127.90625 298.679688 127.90625 C 292.050781 129.992188 274.367188 128.027344 265.773438 135.148438 C 257.179688 142.269531 258.039062 156.882812 258.039062 156.882812 Z M 258.039062 156.882812 " fill-opacity="1" fill-rule="nonzero"/><path fill="#cdeac0" d="M 260.433594 123.085938 C 260.433594 116.546875 257.300781 110.746094 257.300781 110.746094 C 252.695312 118.820312 243.96875 119.125 234.648438 119.957031 C 226.054688 120.722656 222.03125 127.90625 222.03125 133.675781 C 222.03125 139.632812 225.4375 146.015625 239.988281 146.015625 C 255 146.015625 260.433594 129.625 260.433594 123.085938 Z M 260.433594 123.085938 " fill-opacity="1" fill-rule="nonzero"/><path fill="#cdeac0" d="M 266.96875 117.746094 C 291.464844 121.796875 287.136719 95.921875 287.136719 95.921875 C 261.996094 103.5625 266.96875 117.746094 266.96875 117.746094 Z M 266.96875 117.746094 " fill-opacity="1" fill-rule="nonzero"/><path fill="#cdeac0" d="M 265.527344 108.566406 C 268.535156 99.542969 278.113281 97.273438 278.113281 97.273438 C 263.195312 94.078125 265.527344 108.566406 265.527344 108.566406 Z M 265.527344 108.566406 " fill-opacity="1" fill-rule="nonzero"/><path fill="#cdeac0" d="M 224.152344 73.265625 C 211.074219 87.726562 215.679688 108.566406 215.679688 108.566406 C 215.679688 108.566406 225.625 103.105469 231.886719 93.402344 C 238.148438 83.703125 249.933594 73.878906 249.933594 73.878906 C 249.933594 73.878906 241.414062 84.070312 238.796875 88.371094 C 236.183594 92.667969 230.78125 103.226562 228.203125 104.945312 C 228.203125 104.945312 245.757812 108.136719 255.089844 94.507812 C 264.421875 80.878906 261.472656 57.429688 261.472656 57.429688 C 258.039062 63.597656 233.445312 62.992188 224.152344 73.265625 Z M 224.152344 73.265625 " fill-opacity="1" fill-rule="nonzero"/><path fill="#cdeac0" d="M 192.71875 85.792969 C 192.71875 85.792969 214.207031 86.449219 214.207031 63.320312 C 214.207031 50.152344 203.648438 37.414062 203.648438 37.414062 C 201.925781 46.5 185.015625 51.902344 183.757812 65.777344 C 182.441406 80.265625 189.34375 84.316406 189.34375 84.316406 C 190.171875 61.601562 202.664062 56.199219 202.664062 56.199219 C 192.226562 67.617188 192.71875 85.792969 192.71875 85.792969 Z M 192.71875 85.792969 " fill-opacity="1" fill-rule="nonzero"/><path fill="#cdeac0" d="M 201.3125 168.855469 C 201.3125 168.855469 207.511719 162.589844 216.90625 158.578125 C 226.894531 154.308594 233.910156 149.882812 233.910156 149.882812 C 201.878906 141.550781 201.3125 168.855469 201.3125 168.855469 Z M 201.3125 168.855469 " fill-opacity="1" fill-rule="nonzero"/><path fill="#cdeac0" d="M 134.273438 150.253906 C 154.164062 153.9375 170.925781 168.855469 170.925781 168.855469 C 166.136719 141.597656 134.273438 150.253906 134.273438 150.253906 Z M 134.273438 150.253906 " fill-opacity="1" fill-rule="nonzero"/><path fill="#cdeac0" d="M 163.621094 120.90625 C 165.402344 139.753906 180.226562 143.253906 180.226562 143.253906 C 178.570312 125.574219 179.582031 110.746094 179.582031 110.746094 C 180.871094 119.3125 186.152344 139.386719 186.152344 139.386719 C 212.796875 106.234375 171.847656 88.554688 171.847656 88.554688 C 174.425781 97.699219 162.242188 106.320312 163.621094 120.90625 Z M 163.621094 120.90625 " fill-opacity="1" fill-rule="nonzero"/><path fill="#cdeac0" d="M 150.480469 44.351562 C 150.480469 44.351562 130.40625 75.660156 159.136719 81.554688 C 159.136719 81.554688 159.691406 69.09375 151.953125 60.128906 C 151.953125 60.128906 160.425781 64.550781 164.480469 80.390625 C 164.480469 80.390625 171.242188 73.757812 167.792969 61.605469 C 165.214844 52.515625 154.902344 50.0625 150.480469 44.351562 Z M 150.480469 44.351562 " fill-opacity="1" fill-rule="nonzero"/><path fill="#cdeac0" d="M 149.929688 113.96875 C 149.929688 113.96875 150.605469 101.136719 148.027344 95.917969 C 148.027344 95.917969 153.429688 101.136719 153.429688 112.433594 C 153.429688 112.433594 163.507812 110.117188 161.652344 98.679688 C 159.566406 85.792969 145.140625 85.792969 145.140625 85.792969 C 145.140625 85.792969 130.039062 108.445312 149.929688 113.96875 Z M 149.929688 113.96875 " fill-opacity="1" fill-rule="nonzero"/><path fill="#cdeac0" d="M 130.222656 118.175781 C 112.632812 119.496094 110.332031 110.746094 110.332031 110.746094 C 100.570312 130.175781 116.960938 145.25 130.035156 145.25 C 143.113281 145.25 145.324219 136.808594 145.324219 132.019531 C 145.324219 127.230469 140.539062 117.402344 130.222656 118.175781 Z M 130.222656 118.175781 " fill-opacity="1" fill-rule="nonzero"/><path fill="#cdeac0" d="M 108.367188 92.542969 C 112.726562 106.507812 127.460938 104.945312 127.460938 104.945312 C 127.644531 89.105469 117.699219 76.769531 117.699219 76.769531 C 130.222656 81.742188 131.878906 102.691406 131.878906 102.691406 C 149.929688 73.914062 109.226562 66.269531 109.226562 66.269531 C 110.882812 73.941406 104.925781 81.519531 108.367188 92.542969 Z M 108.367188 92.542969 " fill-opacity="1" fill-rule="nonzero"/><path fill="#cdeac0" d="M 103.945312 111.328125 C 106.769531 92.667969 83.996094 95.921875 83.996094 95.921875 C 80.496094 119.3125 101.246094 117.835938 101.246094 117.835938 C 97.6875 100.15625 88.722656 99.296875 88.722656 99.296875 C 100.632812 98.191406 103.945312 111.328125 103.945312 111.328125 Z M 103.945312 111.328125 " fill-opacity="1" fill-rule="nonzero"/><path fill="#cdeac0" d="M 72.390625 129.441406 C 72.390625 129.441406 73.679688 175.484375 108.488281 159.828125 C 108.488281 159.828125 99.308594 156.882812 93.894531 149.511719 C 88.476562 142.144531 87.804688 138.464844 83.597656 136.992188 C 83.597656 136.992188 91.914062 138.457031 96.824219 146.257812 C 101.738281 154.058594 111.804688 156.019531 111.804688 156.019531 C 111.804688 156.019531 115.671875 144.355469 101.859375 134.65625 C 89.988281 126.320312 79.207031 131.34375 72.390625 129.441406 Z M 72.390625 129.441406 " fill-opacity="1" fill-rule="nonzero"/><path fill="#cdeac0" d="M 82.214844 170.878906 C 77.671875 158.476562 68.339844 164.984375 68.339844 164.984375 C 70.917969 180.210938 82.214844 170.878906 82.214844 170.878906 Z M 82.214844 170.878906 " fill-opacity="1" fill-rule="nonzero"/><path fill="#cdeac0" d="M 97.4375 200.839844 C 108.859375 196.785156 106.894531 181.5625 106.894531 181.5625 C 93.019531 183.863281 83.933594 191.382812 83.933594 191.382812 C 90.070312 180.824219 104.3125 178 104.3125 178 C 78.039062 164.742188 70.671875 197.707031 70.671875 197.707031 C 80.1875 198.382812 87.796875 204.257812 97.4375 200.839844 Z M 97.4375 200.839844 " fill-opacity="1" fill-rule="nonzero"/><path fill="#cdeac0" d="M 139.800781 184.386719 C 104.5625 178.125 119.910156 222.9375 119.910156 222.9375 C 126.539062 214.28125 136.449219 219.964844 143.972656 209.554688 C 152.140625 198.261719 143.972656 187.824219 143.972656 187.824219 C 134.273438 190.03125 129.484375 201.898438 129.484375 201.898438 C 125.433594 194.121094 139.800781 184.386719 139.800781 184.386719 Z M 139.800781 184.386719 " fill-opacity="1" fill-rule="nonzero"/><path fill="#cdeac0" d="M 112.304688 207.160156 C 112.304688 207.160156 99.652344 204.398438 103.152344 218.949219 C 103.148438 218.945312 113.648438 218.300781 112.304688 207.160156 Z M 112.304688 207.160156 " fill-opacity="1" fill-rule="nonzero"/><g clip-path="url(#83a89fe99f)"><path fill="#b59365" d="M 317.90625 254.660156 C 302.394531 254.136719 290.75 274.492188 267.539062 287.945312 C 247.84375 299.363281 214.605469 317.269531 187.546875 317.269531 C 159.707031 317.269531 160.230469 306.15625 160.230469 306.15625 C 170.90625 304.242188 173.867188 309.382812 196.085938 309.382812 C 227.023438 309.382812 220.136719 288.121094 220.136719 288.121094 C 193.691406 295.699219 169.773438 282.367188 146.777344 282.222656 C 137.371094 282.164062 130.429688 290.210938 116.582031 290.210938 C 86.378906 290.210938 37.496094 236.363281 37.496094 172.800781 C 37.496094 94.078125 90.300781 16.25 183.589844 16.25 C 278.347656 16.25 313.023438 76.898438 313.023438 76.898438 C 313.023438 76.898438 277 0.0429688 183.632812 0.0429688 C 101.28125 0.0429688 0.367188 53.90625 1.945312 176.164062 C 3.335938 284.429688 98.492188 342.839844 164.050781 342.839844 C 197.421875 342.839844 243.835938 329.945312 263.53125 319.140625 C 283.222656 308.335938 298.210938 289.511719 311.804688 276.617188 C 325.398438 263.71875 332.535156 255.152344 317.90625 254.660156 Z M 317.90625 254.660156 " fill-opacity="1" fill-rule="nonzero"/></g><path fill="#cdeac0" d="M 192.226562 188.070312 C 192.226562 188.070312 187.070312 134.289062 230.042969 112.4375 C 230.042969 112.4375 181.914062 123.730469 177.984375 185.613281 C 177.984375 185.613281 157.847656 153.691406 105.789062 172.355469 C 105.789062 172.355469 171.664062 159.277344 175.527344 221.714844 C 177.886719 259.78125 164.722656 269.109375 164.722656 269.109375 C 164.722656 269.109375 174.792969 278.191406 190.140625 281.511719 C 205.488281 284.824219 218.132812 281.511719 218.132812 281.511719 C 218.132812 281.511719 193.699219 268.617188 193.699219 230.554688 C 193.699219 192.492188 219.972656 164.007812 261.472656 173.339844 C 261.476562 173.332031 224.886719 150.988281 192.226562 188.070312 Z M 192.226562 188.070312 " fill-opacity="1" fill-rule="nonzero"/><path fill="#cdeac0" d="M 253.0625 216.738281 C 270.007812 173.273438 229.859375 181.929688 229.859375 181.929688 C 241.117188 186.71875 245.882812 197.15625 245.882812 197.15625 C 238.640625 189.914062 225.625 188.011719 225.625 188.011719 C 220.101562 215.816406 253.0625 216.738281 253.0625 216.738281 Z M 253.0625 216.738281 " fill-opacity="1" fill-rule="nonzero"/><path fill="#cdeac0" d="M 285.019531 202.003906 C 293.644531 199.792969 303.835938 197.707031 303.835938 197.707031 C 298.066406 191.628906 298.25 183.992188 289.839844 177.632812 C 281.152344 171.0625 268.109375 177.632812 268.109375 177.632812 C 284.191406 182.480469 287.96875 190.675781 287.96875 190.675781 C 279.832031 184.386719 265.316406 181.226562 265.316406 181.226562 C 261.476562 193.101562 276.414062 204.210938 285.019531 202.003906 Z M 285.019531 202.003906 " fill-opacity="1" fill-rule="nonzero"/><path fill="#cdeac0" d="M 271.941406 213.605469 C 272.402344 203.382812 260.433594 204.492188 260.433594 204.492188 C 260.433594 215.265625 271.941406 213.605469 271.941406 213.605469 Z M 271.941406 213.605469 " fill-opacity="1" fill-rule="nonzero"/><path fill="#cdeac0" d="M 285.847656 168.667969 C 301.78125 176.3125 304.542969 165.171875 304.542969 165.171875 C 295.976562 154.949219 285.847656 168.667969 285.847656 168.667969 Z M 285.847656 168.667969 " fill-opacity="1" fill-rule="nonzero"/><path fill="#cdeac0" d="M 258.039062 156.882812 C 258.039062 156.882812 268.261719 153.839844 273.878906 146.75 C 279.496094 139.660156 285.847656 136.992188 285.847656 136.992188 C 285.847656 136.992188 278.390625 144.449219 274.523438 149.976562 C 270.65625 155.5 261.476562 161.382812 261.476562 161.382812 C 297.941406 170.183594 298.679688 127.90625 298.679688 127.90625 C 292.050781 129.992188 274.367188 128.027344 265.773438 135.148438 C 257.179688 142.269531 258.039062 156.882812 258.039062 156.882812 Z M 258.039062 156.882812 " fill-opacity="1" fill-rule="nonzero"/><path fill="#cdeac0" d="M 260.433594 123.085938 C 260.433594 116.546875 257.300781 110.746094 257.300781 110.746094 C 252.695312 118.820312 243.96875 119.125 234.648438 119.957031 C 226.054688 120.722656 222.03125 127.90625 222.03125 133.675781 C 222.03125 139.632812 225.4375 146.015625 239.988281 146.015625 C 255 146.015625 260.433594 129.625 260.433594 123.085938 Z M 260.433594 123.085938 " fill-opacity="1" fill-rule="nonzero"/><path fill="#cdeac0" d="M 266.96875 117.746094 C 291.464844 121.796875 287.136719 95.921875 287.136719 95.921875 C 261.996094 103.5625 266.96875 117.746094 266.96875 117.746094 Z M 266.96875 117.746094 " fill-opacity="1" fill-rule="nonzero"/><path fill="#cdeac0" d="M 265.527344 108.566406 C 268.535156 99.542969 278.113281 97.273438 278.113281 97.273438 C 263.195312 94.078125 265.527344 108.566406 265.527344 108.566406 Z M 265.527344 108.566406 " fill-opacity="1" fill-rule="nonzero"/><path fill="#cdeac0" d="M 224.152344 73.265625 C 211.074219 87.726562 215.679688 108.566406 215.679688 108.566406 C 215.679688 108.566406 225.625 103.105469 231.886719 93.402344 C 238.148438 83.703125 249.933594 73.878906 249.933594 73.878906 C 249.933594 73.878906 241.414062 84.070312 238.796875 88.371094 C 236.183594 92.667969 230.78125 103.226562 228.203125 104.945312 C 228.203125 104.945312 245.757812 108.136719 255.089844 94.507812 C 264.421875 80.878906 261.472656 57.429688 261.472656 57.429688 C 258.039062 63.597656 233.445312 62.992188 224.152344 73.265625 Z M 224.152344 73.265625 " fill-opacity="1" fill-rule="nonzero"/><path fill="#cdeac0" d="M 192.71875 85.792969 C 192.71875 85.792969 214.207031 86.449219 214.207031 63.320312 C 214.207031 50.152344 203.648438 37.414062 203.648438 37.414062 C 201.925781 46.5 185.015625 51.902344 183.757812 65.777344 C 182.441406 80.265625 189.34375 84.316406 189.34375 84.316406 C 190.171875 61.601562 202.664062 56.199219 202.664062 56.199219 C 192.226562 67.617188 192.71875 85.792969 192.71875 85.792969 Z M 192.71875 85.792969 " fill-opacity="1" fill-rule="nonzero"/><path fill="#cdeac0" d="M 201.3125 168.855469 C 201.3125 168.855469 207.511719 162.589844 216.90625 158.578125 C 226.894531 154.308594 233.910156 149.882812 233.910156 149.882812 C 201.878906 141.550781 201.3125 168.855469 201.3125 168.855469 Z M 201.3125 168.855469 " fill-opacity="1" fill-rule="nonzero"/><path fill="#cdeac0" d="M 134.273438 150.253906 C 154.164062 153.9375 170.925781 168.855469 170.925781 168.855469 C 166.136719 141.597656 134.273438 150.253906 134.273438 150.253906 Z M 134.273438 150.253906 " fill-opacity="1" fill-rule="nonzero"/><path fill="#cdeac0" d="M 163.621094 120.90625 C 165.402344 139.753906 180.226562 143.253906 180.226562 143.253906 C 178.570312 125.574219 179.582031 110.746094 179.582031 110.746094 C 180.871094 119.3125 186.152344 139.386719 186.152344 139.386719 C 212.796875 106.234375 171.847656 88.554688 171.847656 88.554688 C 174.425781 97.699219 162.242188 106.320312 163.621094 120.90625 Z M 163.621094 120.90625 " fill-opacity="1" fill-rule="nonzero"/><path fill="#cdeac0" d="M 150.480469 44.351562 C 150.480469 44.351562 130.40625 75.660156 159.136719 81.554688 C 159.136719 81.554688 159.691406 69.09375 151.953125 60.128906 C 151.953125 60.128906 160.425781 64.550781 164.480469 80.390625 C 164.480469 80.390625 171.242188 73.757812 167.792969 61.605469 C 165.214844 52.515625 154.902344 50.0625 150.480469 44.351562 Z M 150.480469 44.351562 " fill-opacity="1" fill-rule="nonzero"/><path fill="#cdeac0" d="M 149.929688 113.96875 C 149.929688 113.96875 150.605469 101.136719 148.027344 95.917969 C 148.027344 95.917969 153.429688 101.136719 153.429688 112.433594 C 153.429688 112.433594 163.507812 110.117188 161.652344 98.679688 C 159.566406 85.792969 145.140625 85.792969 145.140625 85.792969 C 145.140625 85.792969 130.039062 108.445312 149.929688 113.96875 Z M 149.929688 113.96875 " fill-opacity="1" fill-rule="nonzero"/><path fill="#cdeac0" d="M 130.222656 118.175781 C 112.632812 119.496094 110.332031 110.746094 110.332031 110.746094 C 100.570312 130.175781 116.960938 145.25 130.035156 145.25 C 143.113281 145.25 145.324219 136.808594 145.324219 132.019531 C 145.324219 127.230469 140.539062 117.402344 130.222656 118.175781 Z M 130.222656 118.175781 " fill-opacity="1" fill-rule="nonzero"/><path fill="#cdeac0" d="M 108.367188 92.542969 C 112.726562 106.507812 127.460938 104.945312 127.460938 104.945312 C 127.644531 89.105469 117.699219 76.769531 117.699219 76.769531 C 130.222656 81.742188 131.878906 102.691406 131.878906 102.691406 C 149.929688 73.914062 109.226562 66.269531 109.226562 66.269531 C 110.882812 73.941406 104.925781 81.519531 108.367188 92.542969 Z M 108.367188 92.542969 " fill-opacity="1" fill-rule="nonzero"/><path fill="#cdeac0" d="M 103.945312 111.328125 C 106.769531 92.667969 83.996094 95.921875 83.996094 95.921875 C 80.496094 119.3125 101.246094 117.835938 101.246094 117.835938 C 97.6875 100.15625 88.722656 99.296875 88.722656 99.296875 C 100.632812 98.191406 103.945312 111.328125 103.945312 111.328125 Z M 103.945312 111.328125 " fill-opacity="1" fill-rule="nonzero"/><path fill="#cdeac0" d="M 72.390625 129.441406 C 72.390625 129.441406 73.679688 175.484375 108.488281 159.828125 C 108.488281 159.828125 99.308594 156.882812 93.894531 149.511719 C 88.476562 142.144531 87.804688 138.464844 83.597656 136.992188 C 83.597656 136.992188 91.914062 138.457031 96.824219 146.257812 C 101.738281 154.058594 111.804688 156.019531 111.804688 156.019531 C 111.804688 156.019531 115.671875 144.355469 101.859375 134.65625 C 89.988281 126.320312 79.207031 131.34375 72.390625 129.441406 Z M 72.390625 129.441406 " fill-opacity="1" fill-rule="nonzero"/><path fill="#cdeac0" d="M 82.214844 170.878906 C 77.671875 158.476562 68.339844 164.984375 68.339844 164.984375 C 70.917969 180.210938 82.214844 170.878906 82.214844 170.878906 Z M 82.214844 170.878906 " fill-opacity="1" fill-rule="nonzero"/><path fill="#cdeac0" d="M 97.4375 200.839844 C 108.859375 196.785156 106.894531 181.5625 106.894531 181.5625 C 93.019531 183.863281 83.933594 191.382812 83.933594 191.382812 C 90.070312 180.824219 104.3125 178 104.3125 178 C 78.039062 164.742188 70.671875 197.707031 70.671875 197.707031 C 80.1875 198.382812 87.796875 204.257812 97.4375 200.839844 Z M 97.4375 200.839844 " fill-opacity="1" fill-rule="nonzero"/><path fill="#cdeac0" d="M 139.800781 184.386719 C 104.5625 178.125 119.910156 222.9375 119.910156 222.9375 C 126.539062 214.28125 136.449219 219.964844 143.972656 209.554688 C 152.140625 198.261719 143.972656 187.824219 143.972656 187.824219 C 134.273438 190.03125 129.484375 201.898438 129.484375 201.898438 C 125.433594 194.121094 139.800781 184.386719 139.800781 184.386719 Z M 139.800781 184.386719 " fill-opacity="1" fill-rule="nonzero"/><path fill="#cdeac0" d="M 112.304688 207.160156 C 112.304688 207.160156 99.652344 204.398438 103.152344 218.949219 C 103.148438 218.945312 113.648438 218.300781 112.304688 207.160156 Z M 112.304688 207.160156 " fill-opacity="1" fill-rule="nonzero"/><g clip-path="url(#213dbfba31)"><path fill="#b59365" d="M 317.90625 254.660156 C 302.394531 254.136719 290.75 274.492188 267.539062 287.945312 C 247.84375 299.363281 214.605469 317.269531 187.546875 317.269531 C 159.707031 317.269531 160.230469 306.15625 160.230469 306.15625 C 170.90625 304.242188 173.867188 309.382812 196.085938 309.382812 C 227.023438 309.382812 220.136719 288.121094 220.136719 288.121094 C 193.691406 295.699219 169.773438 282.367188 146.777344 282.222656 C 137.371094 282.164062 130.429688 290.210938 116.582031 290.210938 C 86.378906 290.210938 37.496094 236.363281 37.496094 172.800781 C 37.496094 94.078125 90.300781 16.25 183.589844 16.25 C 278.347656 16.25 313.023438 76.898438 313.023438 76.898438 C 313.023438 76.898438 277 0.0429688 183.632812 0.0429688 C 101.28125 0.0429688 0.367188 53.90625 1.945312 176.164062 C 3.335938 284.429688 98.492188 342.839844 164.050781 342.839844 C 197.421875 342.839844 243.835938 329.945312 263.53125 319.140625 C 283.222656 308.335938 298.210938 289.511719 311.804688 276.617188 C 325.398438 263.71875 332.535156 255.152344 317.90625 254.660156 Z M 317.90625 254.660156 " fill-opacity="1" fill-rule="nonzero"/></g></svg>