<?xml version="1.0" encoding="UTF-8" standalone="no"?><!DOCTYPE svg PUBLIC "-//W3C//DTD SVG 1.1//EN" "http://www.w3.org/Graphics/SVG/1.1/DTD/svg11.dtd"><svg width="100%" height="100%" viewBox="0 0 2025 1884" version="1.1" xmlns="http://www.w3.org/2000/svg" xmlns:xlink="http://www.w3.org/1999/xlink" xml:space="preserve" xmlns:serif="http://www.serif.com/" style="fill-rule:evenodd;clip-rule:evenodd;stroke-linejoin:round;stroke-miterlimit:2;"><g><path d="M903.57,1057.746l0.376,-0.752c9.586,7.919 11.577,14.258 13.225,26.45l6.612,-3.306c4.488,-0.387 8.994,-0.584 13.498,-0.679l8.423,-0.2l9.101,-0.167l9.312,-0.208c9.837,-0.217 19.674,-0.411 29.511,-0.605l19.979,-0.433c16.346,-0.354 32.692,-0.689 49.038,-1.014c4.373,-8.387 8.706,-16.792 13.018,-25.21l3.739,-7.142c9.349,-18.36 15.501,-31.756 9.504,-52.439c-1.791,-4.53 -3.634,-9.04 -5.52,-13.531l-2.996,-7.467c-3.254,-8.081 -6.574,-16.133 -9.893,-24.188c-2.285,-5.647 -4.566,-11.296 -6.841,-16.948c-4.659,-11.558 -9.339,-23.107 -14.038,-34.649c-11.776,-28.98 -23.173,-58.11 -34.587,-87.233l-5.157,-13.153l-2.526,-6.448c-5.007,-12.756 -10.097,-25.474 -15.257,-38.169c-4.003,-9.875 -7.942,-19.775 -11.896,-29.669l-4.447,-10.736l-3.909,-9.877l-3.473,-8.546c-2.051,-10.288 0.401,-15.306 5.01,-24.567c13.058,-29.309 18.275,-58.193 11.673,-90.172c-5.158,-29.525 6.245,-50.433 19.62,-75.798c2.236,-4.392 4.464,-8.787 6.686,-13.187c5.822,-11.481 11.745,-22.907 17.692,-34.323c6.068,-11.694 12.037,-23.438 18.015,-35.178c11.711,-22.963 23.53,-45.869 35.419,-68.74l9.474,3.259c8.842,2.861 14.764,4.148 23.872,3.999l7.039,-0.065l7.142,-0.168l7.374,-0.09c5.946,-0.077 11.891,-0.196 17.836,-0.323c20.902,52.907 40.529,106.242 59.305,159.939c20.354,58.746 20.354,58.746 43.591,116.367c2.903,8.03 2.903,8.03 2.903,21.255l6.612,0l1.033,-6.819c2.273,-9.712 2.273,-9.712 7.439,-21.077c6.906,-17.114 5.606,-30.469 1.446,-48.147c37.385,19.238 48.533,81.754 61.579,119.024l6.561,18.52c4.175,11.786 8.307,23.586 12.402,35.4c3.186,9.187 6.468,18.3 9.886,27.406c7.141,19.471 9.315,34.742 8.556,55.415c0.355,15.23 5.819,28.175 11.362,42.209l8.111,21.542l4.85,12.715c6.83,17.991 13.435,36.063 20.05,54.133l3.893,10.633l7.914,21.619c5.107,13.941 10.229,27.876 15.357,41.809c2.45,6.663 4.895,13.327 7.335,19.994c5.774,15.759 11.628,31.475 17.7,47.121l3.336,8.707c2.053,5.347 4.139,10.683 6.263,16.002c8.376,21.965 4.738,33.357 -3.771,54.34l-4.462,11.075l-4.953,12.172l-5.224,12.947c-2.855,7.081 -5.711,14.161 -8.572,21.239c-11.898,29.435 -23.669,58.92 -35.45,88.402c-6.423,16.072 -12.853,32.142 -19.281,48.212l-20.235,50.586l-2.722,6.805l-5.171,12.927l-11.947,29.871c-7.342,18.36 -14.689,36.719 -22.048,55.073l-10.948,27.321l-5.188,12.937l-7.174,17.899l-4.114,10.259c-4.823,12.275 -9.426,24.635 -14.057,36.984l-158.699,0l-6.612,-13.225l-1.371,2.742c-44.675,-119.493 -45.101,-120.645 -50.341,-133.218c-27.286,-65.469 -36.536,-65.784 -71.204,-167.7c-58.286,-171.346 -91.665,-223.38 -105.589,-269.744Z" style="fill:#eee7d7;"/><path d="M733.301,629.764l312.813,666.365l112.412,-20.923c3.35,-7.619 6.796,-15.196 10.332,-22.73l5.398,-11.546l4.107,-8.705l6.612,0l2.65,6.762c8.311,21.203 16.625,42.404 24.945,63.604l12.819,32.686c4.928,12.576 9.863,25.149 14.798,37.721l4.563,11.652c9.531,24.262 19.371,48.377 29.494,72.399l3.328,-5.641c8.439,-14.158 16.465,-27.23 29.734,-37.34c11.444,-1.164 19.379,-1.882 29.756,3.306l5.954,-14.826l3.962,-9.866c2.929,-7.316 5.845,-14.638 8.75,-21.964c7.267,-18.311 14.592,-36.575 22.288,-54.709c2.617,-6.188 5.197,-12.39 7.765,-18.599c3.278,-7.904 6.621,-15.782 10.037,-23.628c8.604,-21.02 12.397,-34.821 6.176,-56.865c-3.533,-13.108 -3.329,-26.157 -3.351,-39.658l-0.245,-7.956c-0.094,-19.128 3.963,-33.544 14.71,-49.49l5.613,-4.05c5.515,-6.254 5.515,-6.254 3.949,-17.756c-2.701,-15.963 -8.07,-30.764 -13.772,-45.867l-3.25,-8.814c-3.41,-9.229 -6.86,-18.444 -10.31,-27.658l-6.871,-18.559c-6.079,-16.419 -12.199,-32.823 -18.339,-49.219l-2.793,-7.476c-3.62,-9.679 -7.27,-19.335 -11.104,-28.932l-3.461,-8.847l-3.565,-8.924c-4.474,-17.403 2.689,-29.341 11.21,-44.389l5.489,-9.777l4.223,-7.374c5.524,8.286 8.463,14.099 11.675,23.273l3.075,8.677l3.434,9.791c2.637,7.424 5.281,14.845 7.93,22.265l2.279,6.385c12.485,34.892 25.352,69.646 38.145,104.425l7.652,20.814l3.757,10.211c2.45,6.664 4.894,13.33 7.334,19.998c5.774,15.759 11.628,31.474 17.7,47.121l3.336,8.707c2.053,5.347 4.139,10.683 6.263,16.002c8.376,21.965 4.738,33.357 -3.771,54.34l-4.462,11.075l-4.953,12.172l-5.224,12.947c-2.855,7.081 -5.711,14.161 -8.572,21.239c-11.898,29.435 -23.669,58.92 -35.45,88.402c-6.423,16.072 -12.853,32.142 -19.281,48.212l-20.235,50.586l-2.722,6.805l-5.171,12.927l-11.947,29.871c-7.342,18.36 -14.689,36.719 -22.048,55.073l-10.948,27.321l-5.188,12.937l-7.174,17.899l-4.114,10.259c-4.823,12.275 -9.435,24.635 -14.065,36.984l-164.875,0c0,0 -4.765,0.29 -6.972,-5.412c-30.769,-79.508 -394.668,-989.671 -392.232,-1003.715Z" style="fill:#365f20;"/><path d="M976.242,147.383c4.042,0.011 4.042,0.011 8.165,0.022c3.045,0 6.089,0 9.226,0.001c3.31,0.017 6.619,0.034 10.029,0.052c3.371,0.005 6.742,0.009 10.215,0.014c10.814,0.019 21.629,0.06 32.443,0.102c7.312,0.017 14.624,0.032 21.936,0.045c17.967,0.037 35.934,0.092 53.901,0.161c0.813,2.228 1.626,4.455 2.464,6.751c3.987,10.923 7.975,21.846 11.962,32.769c0.751,2.058 1.503,4.117 2.277,6.237c9.253,25.348 18.507,50.695 27.762,76.042c2.63,7.202 5.26,14.405 7.89,21.607c1.774,4.858 3.548,9.717 5.322,14.575c10.807,29.597 21.609,59.196 32.404,88.797c5.692,15.606 11.386,31.21 17.081,46.815c2.648,7.259 5.296,14.519 7.941,21.779c18.224,50.051 18.224,50.051 37.224,99.81c10.031,26.218 13.178,45.603 1.413,72.073c-1.534,3.503 -3.069,7.007 -4.649,10.616c-1.79,3.951 -1.79,3.951 -3.616,7.981l-6.612,0c-0.78,-2.275 -1.56,-4.55 -2.364,-6.894c-16.982,-49.458 -34.303,-98.747 -52.719,-147.689c-8.566,-22.79 -16.918,-45.656 -25.253,-68.531c-1.831,-5.022 -3.665,-10.042 -5.502,-15.062c-2.674,-7.308 -5.339,-14.619 -8.002,-21.931c-0.82,-2.235 -1.639,-4.471 -2.484,-6.774c-3.681,-10.134 -7.175,-20.135 -9.475,-30.68c-1.781,0.528 -3.563,1.057 -5.398,1.601c-18.903,4.118 -42.273,5.685 -59.9,-3.255c-2.455,-1.637 -4.91,-3.273 -7.439,-4.959c-0.905,2.901 -1.811,5.801 -2.744,8.79c-3.609,10.306 -7.806,19.453 -12.866,29.112c-2.696,5.183 -2.696,5.183 -5.447,10.471c-1.929,3.689 -3.858,7.378 -5.845,11.178c-4.066,7.904 -8.128,15.81 -12.185,23.718c-6.376,12.415 -12.775,24.816 -19.267,37.172c-4.243,8.081 -8.439,16.183 -12.584,24.314c-3.891,7.631 -7.847,15.229 -11.877,22.787c-12.195,24.22 -14.822,40.66 -9.76,67.201c2.155,33.912 -1.835,59.937 -17.082,90.35c-3.453,11.075 -1.801,15.279 2.524,25.921c1.321,3.336 2.642,6.671 4.003,10.108c1.489,3.595 2.977,7.19 4.511,10.894c1.513,3.784 3.025,7.568 4.584,11.467c3.221,8.056 6.465,16.104 9.728,24.143c6.414,15.816 12.6,31.721 18.799,47.623c6.181,15.848 12.411,31.678 18.639,47.508c4.761,12.101 9.516,24.204 14.271,36.308c2.326,5.916 2.326,5.916 4.7,11.951c3.025,7.698 6.045,15.397 9.059,23.099c6.16,15.707 12.351,31.379 18.974,46.897c0.966,2.29 1.931,4.58 2.926,6.939c2.425,5.708 4.908,11.392 7.396,17.072c4.547,15.792 0.786,28.535 -6.532,42.841c-1.168,2.308 -2.336,4.616 -3.539,6.993c-1.219,2.342 -2.438,4.684 -3.694,7.097c-1.828,3.609 -1.828,3.609 -3.694,7.29c-8.971,17.566 -8.971,17.566 -12.837,21.432c-4.564,0.403 -9.148,0.587 -13.729,0.679c-2.912,0.066 -5.825,0.132 -8.825,0.2c-4.748,0.083 -4.748,0.083 -9.591,0.167c-3.224,0.069 -6.449,0.137 -9.771,0.208c-10.342,0.217 -20.685,0.411 -31.028,0.605c-6.993,0.143 -13.987,0.287 -20.98,0.433c-17.183,0.355 -34.366,0.691 -51.55,1.014c-12.727,-29.269 -24.855,-58.671 -36.369,-88.442c-14.216,-36.47 -28.936,-72.704 -43.933,-108.859c-13.31,-32.114 -26.379,-64.318 -39.265,-96.605c-1.474,-3.693 -2.948,-7.387 -4.467,-11.192c-7.338,-18.4 -14.661,-36.806 -21.969,-55.219c-2.721,-6.836 -5.442,-13.672 -8.163,-20.507c-1.214,-3.071 -2.428,-6.143 -3.679,-9.307c-1.175,-2.948 -2.35,-5.896 -3.56,-8.934c-1.713,-4.307 -1.713,-4.307 -3.46,-8.701c-2.652,-6.233 -5.53,-12.371 -8.56,-18.429c-2.363,-4.737 -2.363,-4.737 -4.775,-9.569c-1.481,-2.823 -2.961,-5.645 -4.487,-8.553c-4.706,-16.504 5.645,-32.286 13.015,-46.976c1.798,-3.601 3.596,-7.202 5.449,-10.911c1.985,-3.94 3.969,-7.881 5.954,-11.821c2.098,-4.189 4.195,-8.378 6.29,-12.568c4.504,-8.999 9.017,-17.993 13.536,-26.984c7.156,-14.238 14.293,-28.486 21.428,-42.736c11.297,-22.556 22.606,-45.106 33.921,-67.654c20.238,-40.329 40.461,-80.665 60.67,-121.008c7.084,-14.141 14.176,-28.278 21.274,-42.412c4.43,-8.824 8.854,-17.651 13.277,-26.479c3.006,-5.995 6.018,-11.986 9.031,-17.977c9.119,-18.213 17.966,-36.44 25.962,-55.177c3.951,-8.526 3.951,-8.526 11.951,-9.041Z" style="fill:#365f20;fill-rule:nonzero;"/><path d="M1003.629,1078.061l9.979,-0.216c16.346,-0.354 32.692,-0.689 49.038,-1.014c4.373,-8.387 8.706,-16.792 13.018,-25.21l3.739,-7.142c9.349,-18.36 15.501,-31.756 9.504,-52.439c-1.791,-4.53 -3.634,-9.04 -5.52,-13.531l-2.996,-7.467c-3.254,-8.081 -6.574,-16.133 -9.893,-24.188c-2.285,-5.647 -4.566,-11.296 -6.841,-16.948c-4.659,-11.558 -9.339,-23.107 -14.038,-34.649c-11.776,-28.98 -23.173,-58.11 -34.587,-87.233l-5.157,-13.153l-2.526,-6.448c-5.007,-12.756 -10.097,-25.474 -15.257,-38.169c-4.003,-9.875 -7.942,-19.775 -11.896,-29.669l-4.447,-10.736l-3.909,-9.877l-3.473,-8.546c-2.051,-10.288 0.401,-15.306 5.01,-24.567c13.058,-29.309 18.275,-58.193 11.673,-90.172c-5.158,-29.525 6.245,-50.433 19.62,-75.798c2.236,-4.392 4.464,-8.787 6.686,-13.187c5.822,-11.481 11.745,-22.907 17.692,-34.323c6.068,-11.694 12.037,-23.438 18.015,-35.178c11.711,-22.963 23.53,-45.869 35.419,-68.74l9.474,3.259c8.842,2.861 14.764,4.148 23.872,3.999l7.039,-0.065l7.142,-0.168l7.374,-0.09c5.946,-0.077 11.891,-0.196 17.836,-0.323c20.902,52.907 40.529,106.242 59.305,159.939c20.354,58.746 20.354,58.746 43.591,116.367c2.903,8.03 2.903,8.03 2.903,21.255l6.612,0l1.033,-6.819c2.273,-9.712 2.273,-9.712 7.439,-21.077c6.906,-17.114 5.606,-30.469 1.446,-48.147c15.265,7.412 20.433,15.128 27.483,30.376l5.127,10.887l3.758,8.33l-6.612,3.306c-1.139,5.503 -2.233,11.015 -3.306,16.531c-2.833,6.605 -5.873,13.122 -9.053,19.566l-5.672,11.595l-3.029,6.129c-5.361,10.856 -10.655,21.744 -15.954,32.631l-3.267,6.703c-9.656,19.859 -18.94,39.879 -28.117,59.964c-17.011,37.156 -34.499,74.073 -52.073,110.965c-18.499,38.837 -36.909,77.707 -54.966,116.751c-12.769,27.606 -25.602,55.177 -38.642,82.656l-4.198,8.881l-3.809,7.998l-3.316,6.976c-2.728,5.28 -2.728,5.28 -6.035,8.586c-4.568,0.307 -9.151,0.388 -13.729,0.375l-8.825,-0.001l-5.325,-0.029c-3.012,-3.473 -6.402,-7.354 -10.301,-11.78c-15.748,-17.88 -22.851,-25.033 -34.062,-36.929Z" style="fill:#96d66b;"/><path d="M988.215,1258.637l143.861,-3.27c28.596,-54.314 28.596,-54.314 56.206,-109.106l3.306,0l3.306,52.9c8.062,-16.919 16.113,-33.843 24.155,-50.772c2.725,-5.733 5.454,-11.466 8.185,-17.196c14.674,-30.794 29.202,-61.607 42.603,-92.98c6.13,-14.29 12.855,-28.12 19.904,-41.971c19.119,-37.614 36.399,-76.107 53.933,-114.478c6.612,3.306 6.612,3.306 11.016,15.253c1.656,5.171 3.286,10.351 4.895,15.537c5.351,17.137 11.146,33.831 18.158,50.368c9.783,23.078 18.515,46.495 27.109,70.035c2.702,7.378 5.441,14.742 8.181,22.106l5.198,14.213l2.473,6.596c4.218,11.698 6.957,21.57 5.625,34.021c-4.223,7.052 -4.223,7.052 -9.712,13.638c-14.237,17.3 -14.035,31.111 -14.051,52.693l-0.123,8.104c-0.034,14.223 1.039,26.606 4.743,40.361c3.894,18.93 -0.268,31.398 -7.733,48.823l-3.468,8.667c-3.651,9.075 -7.417,18.096 -11.191,27.12c-2.447,6.013 -4.886,12.029 -7.316,18.049c-4.678,11.559 -9.396,23.099 -14.15,34.627c-7.992,19.44 -15.553,39.033 -22.961,58.703l-9.919,-3.306c-11.007,-2.486 -11.007,-2.486 -23.144,0c-13.919,11.751 -24.547,26.952 -33.062,42.981c-6.15,-9.225 -9.841,-17.254 -13.883,-27.516l-4.314,-10.907l-4.624,-11.803l-4.793,-12.173c-3.351,-8.515 -6.693,-17.034 -10.03,-25.556c-4.244,-10.837 -8.51,-21.665 -12.783,-32.49c-4.105,-10.409 -8.189,-20.825 -12.276,-31.241l-4.603,-11.661c-8.34,-21.355 -15.829,-42.688 -21.963,-64.783l-6.612,0l-1.589,5.347c-4.593,14.666 -9.981,28.296 -16.97,41.999l-4.486,8.835l-3.406,6.637c-21.006,0.419 -42.011,0.708 -63.021,0.908c-7.149,0.083 -14.297,0.196 -21.445,0.339c-10.267,0.2 -20.531,0.294 -30.8,0.367l-9.707,0.259c-8.275,0.003 -15.728,-0.081 -23.808,-1.873c-7.054,-8.366 -7.054,-8.366 -9.919,-16.531l-0.306,0.385c-1.231,-5.567 -2.354,-10.386 -4.693,-20.259Z" style="fill:#96d76b;"/><path d="M1118.851,151.087c9.6,11.189 14.179,23.288 18.92,37.027c0.851,2.401 1.702,4.802 2.578,7.276c1.858,5.249 3.706,10.502 5.545,15.759c5.089,14.536 10.26,29.044 15.42,43.555c1.098,3.094 2.196,6.188 3.327,9.376c13.188,37.101 26.777,74.053 40.377,111.005c1.883,5.122 1.883,5.122 3.804,10.348c12.881,35.037 25.808,70.057 38.854,105.034c1.009,2.706 2.018,5.413 3.057,8.201c4.646,12.462 9.302,24.921 13.979,37.372c1.627,4.353 3.254,8.707 4.881,13.06c1.387,3.696 2.775,7.391 4.204,11.199c9.888,28.144 14.49,46.857 2.099,74.737c-1.534,3.503 -3.069,7.007 -4.649,10.616c-1.193,2.634 -2.387,5.268 -3.616,7.981l-6.612,0c-1.17,-3.413 -1.17,-3.413 -2.364,-6.894c-16.982,-49.458 -34.303,-98.747 -52.719,-147.689c-8.566,-22.79 -16.918,-45.656 -25.253,-68.531c-1.831,-5.022 -3.665,-10.042 -5.502,-15.062c-2.674,-7.308 -5.339,-14.619 -8.002,-21.931c-0.82,-2.235 -1.639,-4.471 -2.484,-6.774c-3.681,-10.134 -7.175,-20.135 -9.475,-30.68c-1.781,0.528 -3.563,1.057 -5.398,1.601c-18.903,4.118 -42.273,5.685 -59.9,-3.255c-2.455,-1.637 -4.91,-3.273 -7.439,-4.959c-0.905,2.901 -1.811,5.801 -2.744,8.79c-3.609,10.306 -7.806,19.453 -12.866,29.112c-2.696,5.183 -2.696,5.183 -5.447,10.471c-1.929,3.689 -3.858,7.378 -5.845,11.178c-4.066,7.904 -8.128,15.81 -12.185,23.718c-6.376,12.415 -12.775,24.816 -19.267,37.172c-4.243,8.081 -8.439,16.183 -12.584,24.314c-3.891,7.631 -7.847,15.229 -11.877,22.787c-12.195,24.22 -14.822,40.66 -9.76,67.201c2.155,33.912 -1.835,59.937 -17.082,90.35c-3.453,11.075 -1.801,15.279 2.524,25.921c1.321,3.336 2.642,6.671 4.003,10.108c1.489,3.595 2.977,7.19 4.511,10.894c1.513,3.784 3.025,7.568 4.584,11.467c3.221,8.056 6.465,16.104 9.728,24.143c6.414,15.816 12.6,31.721 18.799,47.623c6.181,15.848 12.411,31.678 18.639,47.508c4.761,12.101 9.516,24.204 14.271,36.308c1.551,3.944 3.102,7.888 4.7,11.951c3.025,7.698 6.045,15.397 9.059,23.099c6.16,15.707 12.351,31.379 18.974,46.897c0.966,2.29 1.931,4.58 2.926,6.939c2.425,5.708 4.908,11.392 7.396,17.072c4.569,15.87 0.758,28.615 -6.648,42.958c-1.183,2.323 -2.365,4.646 -3.584,7.039c-1.234,2.357 -2.468,4.714 -3.739,7.142c-1.247,2.434 -2.493,4.867 -3.778,7.374c-3.056,5.958 -6.145,11.898 -9.241,17.836c-6.396,-9.594 -10.205,-18.172 -14.426,-28.865c-2.319,-5.844 -2.319,-5.844 -4.686,-11.805c-0.822,-2.087 -1.645,-4.174 -2.492,-6.324c-4.449,-11.286 -8.938,-22.556 -13.421,-33.828c-1.397,-3.518 -1.397,-3.518 -2.823,-7.107c-9.645,-24.261 -19.463,-48.45 -29.309,-72.63c-1.784,-4.383 -3.567,-8.767 -5.351,-13.15c-2.74,-6.735 -5.481,-13.47 -8.222,-20.205c-6.936,-17.044 -13.855,-34.094 -20.768,-51.147c-1.033,-2.547 -2.066,-5.095 -3.13,-7.719c-5.225,-12.887 -10.442,-25.777 -15.646,-38.673c-9.286,-22.989 -18.618,-45.953 -28.228,-68.808c-4.105,-9.767 -8.176,-19.548 -12.245,-29.329c-1.92,-4.585 -3.857,-9.163 -5.813,-13.733c-2.692,-6.293 -5.324,-12.607 -7.945,-18.93c-1.502,-3.55 -3.005,-7.1 -4.553,-10.757c-5.487,-19.761 1.786,-34.007 10.765,-51.635c1.024,-2.03 2.048,-4.059 3.104,-6.15c3.311,-6.547 6.658,-13.074 10.005,-19.602c2.301,-4.537 4.599,-9.075 6.894,-13.615c4.472,-8.836 8.957,-17.666 13.457,-26.488c6.624,-12.991 13.207,-26.002 19.737,-39.04c0.966,-1.924 1.931,-3.847 2.926,-5.829c11.725,-23.487 22.987,-47.201 34.271,-70.902c10.931,-22.904 22.17,-45.643 33.552,-68.324c7.891,-15.723 15.739,-31.467 23.587,-47.212c7.639,-15.325 15.286,-30.646 22.933,-45.967c3.968,-7.953 7.935,-15.908 11.898,-23.864c5.768,-11.579 11.547,-23.153 17.326,-34.726c1.78,-3.578 3.561,-7.155 5.395,-10.841c1.635,-3.271 3.271,-6.542 4.956,-9.912c1.44,-2.887 2.88,-5.775 4.364,-8.749c3.483,-6.569 3.483,-6.569 6.789,-9.875Z" style="fill:#598d38;fill-rule:nonzero;"/><path d="M917.305,1083.377l6.479,-3.239c4.488,-0.387 8.994,-0.584 13.498,-0.679l8.423,-0.2l9.101,-0.167l9.312,-0.208c9.837,-0.217 19.674,-0.411 29.511,-0.605l19.979,-0.433c16.346,-0.354 32.692,-0.689 49.038,-1.014c14.751,-29.378 29.457,-58.765 43.601,-88.442l4.603,-9.639c13.601,-28.568 26.912,-57.267 40.194,-85.984c15.134,-32.68 30.506,-65.243 45.918,-97.792c19.156,-40.466 38.117,-81.005 56.619,-121.775c4.563,-10.042 9.218,-20.022 14.051,-29.937l5.579,-11.533l4.585,-9.221c5.466,-15.268 3.403,-29.413 -0.245,-44.918c15.265,7.412 20.433,15.128 27.483,30.376l5.127,10.887l3.758,8.33l-6.612,3.306c-1.139,5.503 -2.233,11.015 -3.306,16.531c-2.833,6.605 -5.873,13.122 -9.053,19.566l-5.672,11.595l-3.029,6.129c-5.361,10.856 -10.655,21.744 -15.954,32.631l-3.267,6.703c-9.656,19.859 -18.94,39.879 -28.117,59.964c-17.011,37.156 -34.499,74.073 -52.073,110.965c-18.499,38.837 -36.909,77.707 -54.966,116.751c-12.769,27.606 -25.602,55.177 -38.642,82.656l-4.198,8.881l-3.809,7.998l-3.316,6.976c-2.728,5.28 -2.728,5.28 -6.035,8.586c-4.568,0.307 -9.151,0.388 -13.729,0.375l-8.825,-0.001l-9.591,-0.052l-9.771,-0.014c-10.343,-0.019 -20.685,-0.06 -31.028,-0.102l-20.98,-0.045c-17.183,-0.037 -31.061,7.079 -48.244,7.01c0,0 -14.422,-39.734 -16.397,-50.219Z" style="fill:#d3c397;"/><path d="M1370.125,832.17c5.524,8.286 8.463,14.099 11.675,23.273c1.522,4.295 1.522,4.295 3.075,8.677c1.133,3.231 2.266,6.462 3.434,9.791c2.637,7.424 5.281,14.845 7.93,22.265c0.752,2.107 1.504,4.214 2.279,6.385c12.485,34.892 25.352,69.646 38.145,104.425c2.551,6.938 5.101,13.876 7.652,20.814c1.24,3.37 2.48,6.739 3.757,10.211c2.45,6.664 4.894,13.33 7.334,19.998c5.774,15.759 11.628,31.474 17.7,47.121c1.101,2.873 2.202,5.747 3.336,8.707c2.053,5.347 4.139,10.683 6.263,16.002c8.376,21.965 4.738,33.357 -3.771,54.34c-2.209,5.482 -2.209,5.482 -4.462,11.075c-1.634,4.017 -3.269,8.034 -4.953,12.172c-1.743,4.315 -3.484,8.631 -5.224,12.947c-2.855,7.081 -5.711,14.161 -8.572,21.239c-11.898,29.435 -23.669,58.92 -35.45,88.402c-6.423,16.072 -12.853,32.142 -19.281,48.212c-2.476,6.191 -4.953,12.382 -7.429,18.573c-4.268,10.671 -8.537,21.342 -12.805,32.013c-0.898,2.246 -1.797,4.491 -2.722,6.805c-1.724,4.309 -3.447,8.618 -5.171,12.927c-3.983,9.957 -7.965,19.914 -11.947,29.871c-7.342,18.36 -14.689,36.719 -22.048,55.073c-3.651,9.107 -7.299,18.214 -10.948,27.321c-1.728,4.313 -3.458,8.625 -5.188,12.937c-8.629,21.507 11.581,-1.608 -25.29,65.022c-0.059,0.106 -0.059,0.208 -0.235,0.006c-10.028,-11.472 -15.76,-22.851 -21.26,-36.849c-1.099,-2.737 -2.198,-5.473 -3.331,-8.293c-3.614,-9.014 -7.193,-18.041 -10.772,-27.068c-2.511,-6.279 -5.026,-12.557 -7.542,-18.833c-5.166,-12.889 -10.32,-25.783 -15.466,-38.68c-10.206,-25.556 -20.55,-51.056 -30.906,-76.551c-3.097,-7.637 -6.181,-15.279 -9.262,-22.922c-8.766,-21.723 -17.612,-43.385 -26.932,-64.879c-2.177,-5.081 -2.177,-5.081 -4.398,-10.264c-2.598,-6.031 -5.245,-12.042 -7.956,-18.023c-5.155,-12.034 -7.983,-18.651 -5.521,-31.742c2.308,-4.686 2.308,-4.686 4.662,-9.467c1.645,-3.742 3.29,-7.484 4.985,-11.339c1.764,-3.759 3.529,-7.518 5.347,-11.391c1.781,-3.81 3.563,-7.62 5.398,-11.546c1.355,-2.873 2.711,-5.745 4.107,-8.705l6.612,0c0.875,2.231 1.749,4.463 2.65,6.762c8.311,21.203 16.625,42.404 24.945,63.604c4.275,10.894 8.549,21.79 12.819,32.686c4.928,12.576 9.863,25.149 14.798,37.721c1.506,3.845 3.011,7.69 4.563,11.652c9.531,24.262 19.371,48.377 29.494,72.399c1.098,-1.862 2.196,-3.723 3.328,-5.641c8.439,-14.158 16.465,-27.23 29.734,-37.34c11.444,-1.164 19.379,-1.882 29.756,3.306c1.985,-4.942 3.97,-9.884 5.954,-14.826c1.307,-3.256 2.615,-6.512 3.962,-9.866c2.929,-7.316 5.845,-14.638 8.75,-21.964c7.267,-18.311 14.592,-36.575 22.288,-54.709c2.617,-6.188 5.197,-12.39 7.765,-18.599c3.278,-7.904 6.621,-15.782 10.037,-23.628c8.604,-21.02 12.397,-34.821 6.176,-56.865c-3.533,-13.108 -3.329,-26.157 -3.351,-39.658c-0.081,-2.625 -0.162,-5.251 -0.245,-7.956c-0.094,-19.128 3.963,-33.544 14.71,-49.49c2.779,-2.005 2.779,-2.005 5.613,-4.05c5.515,-6.254 5.515,-6.254 3.949,-17.756c-2.701,-15.963 -8.07,-30.764 -13.772,-45.867c-1.073,-2.909 -2.145,-5.817 -3.25,-8.814c-3.41,-9.229 -6.86,-18.444 -10.31,-27.658c-2.293,-6.185 -4.583,-12.372 -6.871,-18.559c-6.079,-16.419 -12.199,-32.823 -18.339,-49.219c-1.382,-3.7 -1.382,-3.7 -2.793,-7.476c-3.62,-9.679 -7.27,-19.335 -11.104,-28.932c-1.142,-2.919 -2.284,-5.839 -3.461,-8.847c-1.176,-2.945 -2.353,-5.89 -3.565,-8.924c-4.474,-17.403 2.689,-29.341 11.21,-44.389c2.717,-4.839 2.717,-4.839 5.489,-9.777c1.394,-2.434 2.787,-4.867 4.223,-7.374Z" style="fill:#5a8e39;fill-rule:nonzero;"/><path d="M989.043,1258.619l143.033,-3.251c28.596,-54.314 28.596,-54.314 56.206,-109.106l3.306,0c12.974,57.37 -12.689,99.843 -39.675,148.78c-21.006,0.419 -42.011,0.708 -63.021,0.908c-7.149,0.083 -14.297,0.196 -21.445,0.339c-10.267,0.2 -20.531,0.294 -30.8,0.367l-9.707,0.259c-8.275,0.003 -15.728,-0.081 -23.808,-1.873c-7.054,-8.366 -7.054,-8.366 -9.919,-16.531l-0.486,0.612c-2.139,-10.743 -2.942,-14.921 -3.685,-20.505Z" style="fill:#d4c497;"/><path d="M979.073,147.458c5.466,0.058 5.466,0.058 11.042,0.116c3.652,0.03 7.305,0.06 11.068,0.09c2.826,0.038 5.651,0.077 8.563,0.116c-2.659,3.341 -5.319,6.683 -8.059,10.125c-32.701,43.98 -56.931,93.962 -82.503,142.275c-5.475,10.333 -11.013,20.623 -16.684,30.85c-34.709,62.957 -63.44,129.918 -90.301,196.553c-1.302,3.214 -2.604,6.427 -3.945,9.738c-21.265,53.885 -25.04,88.55 -4.114,143.175c1.77,4.733 3.537,9.466 5.302,14.201c30.414,81.093 62.953,161.411 95.299,241.747c6.171,15.328 12.331,30.659 18.493,45.991c4.416,10.968 8.853,21.928 13.292,32.888c2.689,6.679 5.378,13.359 8.065,20.038c1.87,4.591 1.87,4.591 3.779,9.275c1.685,4.204 1.685,4.204 3.405,8.493c0.985,2.436 1.97,4.872 2.986,7.382c2.088,6.401 2.088,6.401 2.088,16.319c-2.033,0.2 -4.066,0.401 -6.16,0.607c-4.008,0.416 -4.008,0.416 -8.098,0.839c-2.647,0.269 -5.293,0.537 -8.02,0.814c-8.01,0.89 -8.01,0.89 -17.396,4.352c-12.986,-29.151 -24.785,-58.709 -36.369,-88.442c-14.225,-36.467 -28.936,-72.704 -43.933,-108.859c-13.31,-32.114 -26.379,-64.318 -39.265,-96.605c-1.474,-3.693 -2.948,-7.387 -4.467,-11.192c-7.338,-18.4 -14.661,-36.806 -21.969,-55.219c-2.721,-6.836 -5.442,-13.672 -8.163,-20.507c-1.214,-3.071 -2.428,-6.143 -3.679,-9.307c-1.175,-2.948 -2.35,-5.896 -3.56,-8.934c-1.713,-4.307 -1.713,-4.307 -3.46,-8.701c-2.652,-6.233 -5.53,-12.371 -8.56,-18.429c-2.363,-4.737 -2.363,-4.737 -4.775,-9.569c-1.481,-2.823 -2.961,-5.645 -4.487,-8.553c-4.706,-16.504 5.645,-32.286 13.015,-46.976c1.798,-3.601 3.596,-7.202 5.449,-10.911c1.985,-3.94 3.969,-7.881 5.954,-11.821c2.098,-4.189 4.195,-8.378 6.29,-12.568c4.504,-8.999 9.017,-17.993 13.536,-26.984c7.156,-14.238 14.293,-28.486 21.428,-42.736c11.297,-22.556 22.606,-45.106 33.921,-67.654c20.238,-40.329 40.461,-80.665 60.67,-121.008c7.084,-14.141 14.176,-28.278 21.274,-42.412c4.43,-8.824 8.854,-17.651 13.277,-26.479c3.006,-5.995 6.018,-11.986 9.031,-17.977c9.119,-18.213 17.966,-36.44 25.962,-55.177c4.074,-8.791 4.493,-8.597 14.781,-8.966Z" style="fill:#264917;fill-rule:nonzero;"/><path d="M1082.483,349.461c4.053,1.624 4.053,1.624 8.188,3.28c13.609,3.893 25.305,4.075 39.339,3.745c2.434,-0.03 4.867,-0.06 7.374,-0.09c5.946,-0.077 11.891,-0.196 17.836,-0.323c13.918,35.23 27.322,70.606 40.14,106.252c7.337,20.364 15.044,40.507 23.299,60.519c2.948,9.283 4.122,15.337 2.686,24.99c-18.654,28.432 -47.284,48.757 -79.35,59.512c-9.299,0.413 -9.299,0.413 -16.531,0c-0.786,-5.626 -0.786,-5.626 -1.589,-11.365c-5.666,-40.788 -5.666,-40.788 -28.168,-74.597c-11.13,-0.484 -19.124,-0.238 -29.756,3.306c-0.643,-18.646 1.504,-34.267 6.406,-52.28c10.086,-40.265 9.592,-81.663 10.125,-122.95Z" style="fill:#aef082;fill-rule:nonzero;"/><path d="M1330.45,686.696c13.352,6.676 15.672,27.275 20.188,40.787c2.112,6.274 4.309,12.519 6.508,18.764c1.334,3.959 2.668,7.919 4.042,11.998c1.859,5.448 1.859,5.448 3.755,11.007c3.044,16.259 -5.692,28.878 -12.801,43.305c-1.603,3.262 -3.206,6.523 -4.858,9.883c-1.732,3.509 -3.464,7.018 -5.249,10.634c-1.812,3.686 -3.625,7.371 -5.492,11.169c-4.836,9.833 -9.676,19.663 -14.519,29.491c-27.062,54.918 -53.944,109.906 -80.26,165.185c-5.586,11.717 -11.208,23.415 -16.842,35.109c-1.822,3.782 -3.644,7.565 -5.521,11.462c-2.618,5.431 -2.618,5.431 -5.289,10.971c-2.829,5.872 -2.829,5.872 -5.715,11.862c-4.5,9.34 -9.001,18.68 -13.503,28.019l-3.306,0c0.367,-11.092 0.798,-22.18 1.24,-33.269c0.102,-3.118 0.205,-6.235 0.31,-9.447c0.736,-17.61 1.976,-33.343 8.369,-49.858c8.679,-4.753 8.679,-4.753 16.531,-6.612c-1.637,-8.183 -1.637,-8.183 -3.306,-16.531c-3.273,-1.091 -6.546,-2.182 -9.919,-3.306l0,-6.612c6.546,-3.273 6.546,-3.273 13.225,-6.612l0,-13.225c-2.182,-1.091 -4.364,-2.182 -6.612,-3.306c18.832,-90.725 45.087,-179.33 89.268,-261.192c1.364,1.637 2.728,3.273 4.133,4.959c6.189,6.394 6.189,6.394 19.011,4.959c-1.859,-15.455 -1.859,-15.455 -5.993,-30.376c-0.205,-1.978 -0.409,-3.955 -0.62,-5.993c6.406,-7.439 6.406,-7.439 13.225,-13.225Z" style="fill:#fbf6ec;fill-rule:nonzero;"/><path d="M1227.337,664.676c8.116,4.9 16.003,9.964 23.764,15.408c-4.872,15.825 -11.35,30.544 -18.533,45.422c-1.178,2.466 -2.355,4.932 -3.569,7.472c-2.533,5.304 -5.071,10.606 -7.613,15.906c-23.728,49.492 -46.907,99.2 -69.352,149.286c-12.57,27.975 -25.872,55.455 -39.795,82.781c-22.972,-22.972 -17.776,-78.928 -17.978,-108.692c0.242,-66.589 11.844,-131.844 54.346,-185.562c22.646,-21.325 48.011,-36.654 78.73,-22.02Z" style="fill:#5a8e39;fill-rule:nonzero;"/><path d="M1145.301,227.13c7.843,7.051 11.748,12.824 15.26,22.738c1.402,3.89 1.402,3.89 2.832,7.859c0.989,2.834 1.979,5.667 2.998,8.587c1.073,2.997 2.145,5.995 3.251,9.083c3.552,9.939 7.066,19.891 10.581,29.843c3.743,10.498 7.496,20.991 11.25,31.485c2.615,7.309 5.227,14.619 7.835,21.93c15.811,44.258 32.108,88.337 48.403,132.419c7.799,21.104 15.555,42.223 23.227,63.374c0.804,2.205 1.609,4.409 2.437,6.68c1.992,5.496 3.932,11.011 5.867,16.528c1.475,4.18 1.475,4.18 2.979,8.444c4.481,18.518 1.291,31.803 -6.324,48.937c-1.534,3.503 -3.069,7.007 -4.649,10.616c-1.79,3.951 -1.79,3.951 -3.616,7.981l-6.612,0c-0.78,-2.275 -1.56,-4.55 -2.364,-6.894c-16.982,-49.458 -34.303,-98.747 -52.719,-147.689c-8.566,-22.79 -16.918,-45.656 -25.253,-68.531c-1.831,-5.022 -3.665,-10.042 -5.502,-15.062c-2.674,-7.308 -5.339,-14.619 -8.002,-21.931c-0.82,-2.235 -1.639,-4.471 -2.484,-6.774c-3.681,-10.134 -7.175,-20.135 -9.475,-30.68c-1.781,0.528 -3.563,1.057 -5.398,1.601c-9.223,2.009 -17.812,2.387 -27.251,2.531c-3.333,0.085 -6.666,0.17 -10.099,0.258c-11.787,-1.26 -19.745,-5.194 -29.989,-11.004c-2.541,-58.172 -2.541,-58.172 13.225,-79.35c2.318,-3.341 4.637,-6.683 7.026,-10.125c11.872,-13.595 27.591,-23.027 42.568,-32.856Z" style="fill:#70a94a;fill-rule:nonzero;"/><path d="M1370.125,832.17c5.524,8.286 8.463,14.099 11.675,23.273c1.015,2.863 2.03,5.727 3.075,8.677c1.133,3.231 2.266,6.462 3.434,9.791c2.637,7.424 5.281,14.845 7.93,22.265c0.752,2.107 1.504,4.214 2.279,6.385c12.485,34.892 25.352,69.646 38.145,104.425c2.551,6.938 5.101,13.876 7.652,20.814c1.24,3.37 2.48,6.739 3.757,10.211c2.45,6.664 4.894,13.33 7.334,19.998c5.774,15.759 11.628,31.474 17.7,47.121c1.101,2.873 2.202,5.747 3.336,8.707c2.053,5.347 4.139,10.683 6.263,16.002c9.1,23.865 3.635,36.074 -5.631,58.989c-0.86,2.139 -1.721,4.278 -2.607,6.482c-2.738,6.799 -5.496,13.59 -8.255,20.381c-1.842,4.563 -3.682,9.126 -5.521,13.69c-3.386,8.398 -6.781,16.792 -10.183,25.184c-3.674,9.074 -7.325,18.157 -10.953,27.251l-3.306,0c-0.046,-2.895 -0.046,-2.895 -0.094,-5.849c0.168,-50.207 0.168,-50.207 -16.438,-96.644c-2.193,-3.753 -2.193,-3.753 -4.43,-7.581c-2.798,-4.582 -5.664,-9.123 -8.627,-13.599c-3.474,-5.269 -3.474,-5.269 -6.78,-11.882c2.221,-6.083 2.221,-6.083 5.786,-13.018c1.142,-2.28 2.284,-4.56 3.461,-6.91c3.978,-6.522 3.978,-6.522 9.609,-10.668c6.143,-8.271 3.953,-14.827 2.534,-24.6c-2.744,-13.472 -7.529,-26.091 -12.375,-38.929c-1.073,-2.909 -2.145,-5.817 -3.25,-8.814c-3.41,-9.229 -6.86,-18.444 -10.31,-27.658c-2.293,-6.185 -4.583,-12.372 -6.871,-18.559c-6.079,-16.419 -12.199,-32.823 -18.339,-49.219c-0.922,-2.467 -1.843,-4.934 -2.793,-7.476c-3.62,-9.679 -7.27,-19.335 -11.104,-28.932c-1.142,-2.919 -2.284,-5.839 -3.461,-8.847c-1.176,-2.945 -2.353,-5.89 -3.565,-8.924c-4.474,-17.403 2.689,-29.341 11.21,-44.389c2.717,-4.839 2.717,-4.839 5.489,-9.777c1.394,-2.434 2.787,-4.867 4.223,-7.374Z" style="fill:#70a94a;fill-rule:nonzero;"/><path d="M993.309,1298.485c14.184,0 41.498,-0.136 56.111,-0.136c2.519,6.154 5.038,12.308 7.633,18.649c66.323,167.461 66.323,167.461 169.586,313.381c4.624,5.205 4.624,5.205 4.624,8.511c-29.615,0 -68.144,-0.471 -99.188,-0.525c-4.376,-0.008 -4.333,-1.251 -6.362,-6.182c-14.065,-34.182 -129.264,-321.139 -132.404,-333.699Z" style="fill:#264916;fill-rule:nonzero;"/><path d="M988.681,1258.627l143.395,-3.259c28.596,-54.314 28.596,-54.314 56.206,-109.106l3.306,0c12.974,57.37 -12.689,99.843 -39.675,148.78c-21.006,0.419 -42.011,0.708 -63.021,0.908c-7.149,0.083 -14.297,0.196 -21.445,0.339c-10.267,0.2 -20.531,0.294 -30.8,0.367l-9.707,0.259c-8.275,0.003 -15.728,-0.081 -23.808,-1.873c-7.054,-8.366 -7.054,-8.366 -9.919,-16.531l-0.092,0.147c-1.828,-7.733 -2.883,-10.738 -4.441,-20.032Z" style="fill:#d4c497;"/><path d="M1363.512,785.883l6.612,0c5.891,15.465 10.683,29.598 4.193,45.666c-3.628,7.07 -7.487,13.969 -11.425,20.872c-14.546,26.526 -27.683,53.506 -40.295,81.003c-13.665,29.742 -27.494,59.386 -41.741,88.855c-14.411,29.831 -28.472,59.811 -42.361,89.888c-14.028,30.37 -28.238,60.58 -43.601,90.301l-3.306,0c-6.131,-41.387 -2.508,-67.925 18.506,-104.059c8.581,-15.453 16.005,-31.483 23.6,-47.437c4.993,-10.472 10.042,-20.917 15.082,-31.367c2.056,-4.27 4.112,-8.54 6.167,-12.81c14.339,-29.784 28.715,-59.552 43.096,-89.315c5.469,-11.318 10.934,-22.638 16.395,-33.959c6.133,-12.714 12.273,-25.424 18.418,-38.133c2.385,-4.935 4.767,-9.871 7.146,-14.808c3.307,-6.86 6.623,-13.716 9.941,-20.572c0.993,-2.065 1.986,-4.13 3.009,-6.257c6.881,-14.185 6.881,-14.185 10.564,-17.868Z" style="fill:#e6dcae;fill-rule:nonzero;"/><path d="M1277.55,1080.138c13.177,0.244 20.6,1.045 30.583,9.919c7.413,12.707 11.74,25.557 15.705,39.675c0.614,1.939 1.227,3.878 1.86,5.876c7.684,39.039 2.161,79.532 -17.978,113.768c-9.302,7.934 -14.619,9.799 -26.863,9.299c-19.45,-13.43 -27.074,-36.659 -31.719,-59.06c-4.66,-35.979 -4.7,-73.214 15.395,-104.598c6.406,-8.266 6.406,-8.266 13.018,-14.878Z" style="fill:#5b8f39;fill-rule:nonzero;"/><path d="M1085.789,515.806c11.429,2.619 15.968,6.851 22.821,16.26c10.969,17.683 15.693,34.855 16.854,55.444c0.175,3.005 0.349,6.009 0.53,9.105c0.965,32.17 -2.796,64.491 -23.673,90.082c-6.612,6.612 -6.612,6.612 -15.911,8.266c-10.539,-1.653 -10.539,-1.653 -19.217,-8.885c-22.877,-31.835 -25.446,-74.02 -21.077,-111.792c5.135,-25.128 11.935,-52.122 39.675,-58.479Z" style="fill:#5a8f39;fill-rule:nonzero;"/><path d="M1363.512,934.663c7.195,8.944 11.957,17.054 15.901,27.818c1.058,2.858 2.117,5.716 3.207,8.661c1.106,3.062 2.212,6.124 3.351,9.279c1.16,3.171 2.32,6.342 3.516,9.609c2.442,6.696 4.873,13.397 7.293,20.101c3.707,10.251 7.466,20.482 11.23,30.713c2.369,6.514 4.734,13.03 7.097,19.547c1.126,3.055 2.252,6.111 3.412,9.258c1.541,4.303 1.541,4.303 3.112,8.693c0.91,2.508 1.82,5.015 2.757,7.599c3.046,11.642 3.894,20.546 -2.165,31.121c-1.781,2.203 -3.563,4.407 -5.398,6.677c-1.764,2.229 -3.529,4.458 -5.347,6.755c-4.985,5.85 -4.985,5.85 -11.598,12.463c-25.26,-56.402 -25.26,-56.402 -33.062,-82.656c-0.916,-2.451 -1.833,-4.901 -2.777,-7.426c-7.283,-21.514 -8.092,-42.184 -8.175,-64.691c-0.027,-4.502 -0.027,-4.502 -0.054,-9.095c0.171,-16.089 1.44,-29.336 7.7,-44.424Z" style="fill:#acef81;fill-rule:nonzero;"/><path d="M931.551,1124.704c15.275,0 32.701,1.721 48.438,1.721c38.703,90.149 38.703,90.149 52.9,132.249c-15.275,0 -40.468,2.563 -56.206,2.563c-1.994,-4.985 -40.423,-105.368 -43.111,-111.503c-1.183,-2.664 -2.398,-5.314 -3.586,-8.072c-15.482,-35.946 -1.16,-19.811 1.565,-16.958Z" style="fill:#d8d0c2;fill-rule:nonzero;"/><path d="M1244.488,494.935c11.484,12.748 16.039,28.135 21.697,44.014c1.004,2.743 2.007,5.485 3.041,8.311c20.515,56.627 20.515,56.627 6.671,87.777c-1.534,3.503 -3.069,7.007 -4.649,10.616c-1.193,2.634 -2.387,5.268 -3.616,7.981l-6.612,0c-0.867,-2.517 -1.734,-5.035 -2.627,-7.629c-3.942,-11.441 -7.89,-22.88 -11.838,-34.319c-1.364,-3.961 -2.728,-7.923 -4.133,-12.004c-1.982,-5.738 -1.982,-5.738 -4.004,-11.591c-1.818,-5.272 -1.818,-5.272 -3.673,-10.651c-2.255,-6.325 -4.634,-12.609 -7.158,-18.832c-4.445,-11.304 -5.01,-19.108 -0.199,-30.456c3.351,-6.753 6.881,-13.373 10.487,-19.992c2.219,-4.401 4.428,-8.807 6.612,-13.225Z" style="fill:#5a8e39;fill-rule:nonzero;"/><path d="M1056.033,180.843c4.364,1.091 8.728,2.182 13.225,3.306c3.595,10.825 3.675,15.616 -0.646,26.347c-2.089,3.912 -4.22,7.802 -6.38,11.675c-15.153,28.571 -28.226,57.993 -41.236,87.58c-18.868,42.893 -18.868,42.893 -31.088,62.854c-5.455,-1.091 -10.911,-2.182 -16.531,-3.306c-3.577,-9.002 -3.491,-12.712 -0.156,-21.976c1.65,-3.292 3.299,-6.584 4.999,-9.975c1.816,-3.683 3.631,-7.366 5.502,-11.161c1.993,-3.951 3.986,-7.902 5.98,-11.854c4.008,-8.081 7.99,-16.174 11.972,-24.267c0.989,-2 1.977,-4 2.996,-6.061c9.351,-18.982 17.945,-38.253 26.152,-57.754c6.942,-16.158 15.549,-30.723 25.211,-45.407Z" style="fill:#264916;fill-rule:nonzero;"/><path d="M1280.856,613.959c20.429,-24.841 10.44,26.604 -4.727,48.392c-2.801,4.024 -4.729,8.59 -7.091,12.887c-1.242,2.238 -2.484,4.476 -3.763,6.782c-25.817,46.686 -47.374,93.761 -66.566,143.585c-33.458,86.583 -33.458,86.583 -53.408,109.059l-9.919,0c2.124,-15.37 8.326,-28.327 15.02,-42.142c1.191,-2.497 2.382,-4.994 3.609,-7.566c3.899,-8.166 7.823,-16.321 11.747,-24.476c4.082,-8.538 8.158,-17.079 12.233,-25.621c2.752,-5.768 5.506,-11.535 8.262,-17.3c12.48,-26.119 24.749,-52.333 36.951,-78.583c13.947,-29.982 27.957,-59.931 42.239,-89.755c5.542,-11.618 10.818,-23.235 15.413,-35.262Z" style="fill:#b7a97a;fill-rule:nonzero;"/><path d="M1095.708,518.079c19.955,19.027 28.379,42.018 29.756,69.431c0.228,13.231 0.198,26.444 0,39.675l-3.306,0l0,-19.837c-1.995,-0.324 -3.989,-0.648 -6.044,-0.982c-12.629,-2.363 -21.816,-4.277 -32.391,-11.83c-4.546,-7.026 -4.546,-7.026 -4.339,-14.051c3.1,-6.199 3.1,-6.199 13.018,-12.812l0,-13.225l-26.45,0c-2.48,-10.745 -2.48,-10.745 -3.306,-23.144c8.713,-13.593 17.399,-16.422 33.062,-13.225Z" style="fill:#71aa4b;fill-rule:nonzero;"/><path d="M1145.301,762.74c5.455,1.091 10.911,2.182 16.531,3.306c5.164,13.037 1.124,20.938 -4.133,33.476c-9.327,23.136 -18.228,45.727 -20.871,70.671c-1.446,11.572 -1.446,11.572 -8.059,18.184c-6.819,-0.827 -6.819,-0.827 -13.225,-3.306c-8.661,-17.321 -3.752,-36.775 1.778,-54.349c7.833,-23.348 17.161,-45.841 27.978,-67.981Z" style="fill:#467a2d;fill-rule:nonzero;"/><path d="M1135.382,1351.248c6.548,0.439 6.548,0.439 13.225,3.306c14.108,18.424 21.092,43.945 29.343,65.505c1.067,2.725 2.134,5.45 3.233,8.258c8.995,24.242 8.995,24.242 3.793,38.65l-16.531,0c-5.558,-13.206 -11.054,-26.436 -16.531,-39.675c-0.883,-2.121 -1.767,-4.242 -2.677,-6.427c-2.711,-6.528 -5.393,-13.067 -8.069,-19.61c-2.48,-6.022 -2.48,-6.022 -5.011,-12.166c-3.81,-10.633 -6.534,-19.97 -7.387,-31.228c2.182,-2.182 4.364,-4.364 6.612,-6.612Z" style="fill:#264917;fill-rule:nonzero;"/><path d="M1241.182,1321.492c7.646,0.207 7.646,0.207 16.531,3.306c7.026,9.712 7.026,9.712 13.225,19.837c11.685,7.79 15.988,8.232 29.756,6.612c3.341,-2.25 6.683,-4.501 10.125,-6.819c9.712,-6.406 9.712,-6.406 19.217,-5.579c2.318,0.818 4.637,1.637 7.026,2.48c-0.207,9.092 -0.207,9.092 -3.306,19.837c-16.388,13.839 -31.893,15.646 -53.068,14.956c-15.365,-2.727 -25.883,-10.034 -36.201,-21.568c-6.145,-10.428 -7.597,-17.614 -6.612,-29.756c1.091,-1.091 2.182,-2.182 3.306,-3.306Z" style="fill:#71aa4b;fill-rule:nonzero;"/><path d="M960.075,915.317c9.485,3.992 10.631,8.704 14.542,18.107c1.368,3.256 2.736,6.512 4.146,9.867c2.244,5.549 2.244,5.549 4.533,11.21c1.817,4.29 3.638,8.577 5.463,12.863c1.834,4.389 3.664,8.78 5.489,13.173c0.882,2.082 1.763,4.165 2.672,6.311c4.74,11.702 7.247,21.14 6.214,33.777c-8.183,1.637 -8.183,1.637 -16.531,3.306c-11.336,-21.586 -21.766,-43.358 -30.996,-65.918c-0.868,-2.069 -1.736,-4.139 -2.63,-6.271c-4.658,-11.632 -7.048,-21.075 -6.049,-33.61c6.612,-3.306 6.612,-3.306 13.147,-2.815Z" style="fill:#264916;fill-rule:nonzero;"/><path d="M851.047,504.854c5.539,0.946 11.056,2.043 16.531,3.306c0.377,22.387 -5.578,41.057 -14.258,61.372c-0.978,2.363 -1.957,4.726 -2.965,7.161c-7.45,16.691 -7.45,16.691 -15.816,20.166c-2.19,0.188 -4.38,0.376 -6.636,0.569c-2.182,-2.182 -4.364,-4.364 -6.612,-6.612c1.215,-14.839 5.851,-27.584 11.365,-41.328c4.307,-10.799 8.474,-21.497 12.101,-32.546c2.983,-8.782 2.983,-8.782 6.29,-12.088Z" style="fill:#264917;fill-rule:nonzero;"/><path d="M1370.125,832.17c9.639,14.459 16.692,28.652 16.325,46.287c-4.05,12.959 -9.924,24.437 -16.325,36.369c-2.216,4.402 -4.424,8.809 -6.612,13.225c-2.161,-5.086 -4.29,-10.186 -6.406,-15.291c-1.189,-2.838 -2.378,-5.677 -3.603,-8.601c-5.503,-15.692 -8.395,-24.526 -1.782,-40.346c2.186,-3.759 4.373,-7.518 6.625,-11.391c1.119,-1.96 2.238,-3.921 3.39,-5.941c2.747,-4.798 5.561,-9.558 8.388,-14.31Z" style="fill:#5b8e3a;fill-rule:nonzero;"/><path d="M942.381,1079.931c4.974,0.045 4.974,0.045 10.048,0.09c2.549,0.038 5.097,0.077 7.723,0.116c2.78,5.291 5.529,10.598 8.266,15.911c1.534,2.954 3.069,5.907 4.649,8.95c3.616,8.201 3.616,8.201 3.616,18.12c-15.275,0 -36.466,2.689 -52.203,2.689c-0.796,1.043 -3.878,-9.098 -5.935,-13.841c-3.572,-8.236 -7.126,-16.915 -9.979,-25.475c8.744,-4.372 24.07,-6.674 33.815,-6.561Z" style="fill:#bba97c;fill-rule:nonzero;"/><path d="M890.721,759.433c7.801,0.181 7.801,0.181 16.531,3.306c5.838,8.911 5.838,8.911 10.745,20.251c2.48,5.536 2.48,5.536 5.011,11.184c4.142,11.717 6.339,22.321 7.387,34.69c-3.306,3.306 -3.306,3.306 -11.778,3.513c-2.659,-0.068 -5.319,-0.136 -8.059,-0.207c-0.801,-1.841 -1.602,-3.682 -2.428,-5.579c-6.704,-15.265 -13.724,-30.067 -21.917,-44.595c-2.671,-7.652 -1.539,-11.74 1.201,-19.256c1.091,-1.091 2.182,-2.182 3.306,-3.306Z" style="fill:#264917;fill-rule:nonzero;"/><path d="M1323.837,1466.966c5.539,0.946 11.056,2.043 16.531,3.306c-1.449,22.695 -10.038,41.224 -24.693,58.686c-7.918,6.463 -15.078,4.987 -24.9,4.133c-3.306,-3.306 -3.306,-3.306 -3.513,-11.778c0.068,-2.659 0.136,-5.319 0.207,-8.059c1.965,-0.712 3.93,-1.423 5.954,-2.157c9.774,-5.989 12.661,-12.694 17.81,-22.847c9.166,-17.845 9.166,-17.845 12.605,-21.284Z" style="fill:#6fa849;fill-rule:nonzero;"/><path d="M977.896,1261.237c14.184,0 40.38,-2.563 54.993,-2.563c13.225,28.93 13.799,30.803 13.799,38.242c-15.076,-0.897 -39.781,1.247 -54.311,1.569c-5.713,-14.192 -11.325,-28.615 -14.481,-37.248Z" style="fill:#bba97c;fill-rule:nonzero;"/><path d="M1072.564,551.141l19.837,0c1.091,5.455 2.182,10.911 3.306,16.531c-12.398,9.919 -12.398,9.919 -19.837,9.919l0,26.45c-5.455,1.091 -10.911,2.182 -16.531,3.306c-7.607,-11.411 -6.956,-16.707 -4.908,-29.95c2.093,-8.39 5.293,-13.666 11.52,-19.644l6.612,0l0,-6.612Z" style="fill:#467b2d;fill-rule:nonzero;"/><path d="M1290.775,1182.631c12.812,2.893 12.812,2.893 16.531,6.612c-1.153,20.76 -1.153,20.76 -9.092,29.549c-9.245,4.366 -13.87,5.484 -23.97,3.513c-9.505,-7.439 -9.505,-7.439 -16.531,-16.531c0.62,-7.646 0.62,-7.646 3.306,-13.225c6.199,-2.066 6.199,-2.066 13.225,-3.306c2.182,2.182 4.364,4.364 6.612,6.612c3.273,-4.364 6.546,-8.728 9.919,-13.225Z" style="fill:#467a2d;fill-rule:nonzero;"/><path d="M1022.971,736.29c7.232,0 7.232,0 16.531,3.306c11.552,13.408 19.41,28.354 19.837,46.287c-2.182,2.182 -4.364,4.364 -6.612,6.612c-6.341,-0.155 -6.341,-0.155 -13.225,-3.306c-5.747,-7.697 -5.747,-7.697 -10.952,-17.358c-1.76,-3.154 -3.52,-6.308 -5.334,-9.557c-3.942,-10.492 -3.535,-15.442 -0.245,-25.985Z" style="fill:#72ac4c;fill-rule:nonzero;"/><path d="M920.477,445.341l16.531,0c5.078,12.946 1.375,21.159 -3.72,33.682c-1.372,3.525 -2.745,7.049 -4.159,10.681c-5.347,8.537 -5.347,8.537 -14,11.598c-2.6,0.081 -5.2,0.162 -7.878,0.245c-1.091,-1.091 -2.182,-2.182 -3.306,-3.306c1.231,-19.703 7.938,-35.275 16.531,-52.9Z" style="fill:#264917;fill-rule:nonzero;"/><path d="M1297.388,693.309l16.531,0c15.183,27.316 15.183,27.316 13.225,42.981c-5.455,1.091 -10.911,2.182 -16.531,3.306c-2.883,-4.579 -5.693,-9.203 -8.472,-13.845c-1.573,-2.57 -3.145,-5.14 -4.766,-7.788c-3.942,-9.722 -2.925,-14.751 0.013,-24.655Z" style="fill:#d8d1c3;fill-rule:nonzero;"/><path d="M940.315,326.317c4.364,1.091 8.728,2.182 13.225,3.306c2.706,7.819 3.619,12.131 1.317,20.186c-9.18,18.676 -9.18,18.676 -20.122,23.002c-7.646,-0.207 -7.646,-0.207 -10.952,-3.513c-2.865,-15.756 4.542,-25.194 12.915,-37.776c1.193,-1.718 2.387,-3.435 3.616,-5.205Z" style="fill:#264917;fill-rule:nonzero;"/><path d="M1184.976,1017.319c10.911,1.091 21.821,2.182 33.062,3.306c1.264,5.476 2.36,10.992 3.306,16.531c-6.204,6.204 -14.872,3.901 -23.118,4.068c-6.638,-0.762 -6.638,-0.762 -16.557,-7.374c1.091,-5.455 2.182,-10.911 3.306,-16.531Z" style="fill:#d8d1c3;fill-rule:nonzero;"/><path d="M1188.282,987.563l29.756,0c1.264,5.476 2.36,10.992 3.306,16.531c-6.265,6.265 -15.114,3.902 -23.441,4.068c-6.315,-0.762 -6.315,-0.762 -12.928,-7.374c1.091,-4.364 2.182,-8.728 3.306,-13.225Z" style="fill:#d7d0c2;fill-rule:nonzero;"/><path d="M1067.811,1205.568c3.751,0.068 7.501,0.136 11.365,0.207c0.141,5.509 0.134,11.022 0,16.531c-3.306,3.306 -3.306,3.306 -13.432,3.513c-3.205,-0.068 -6.41,-0.136 -9.712,-0.207c-1.264,-5.476 -2.36,-10.992 -3.306,-16.531c3.306,-3.306 3.306,-3.306 15.085,-3.513Z" style="fill:#fbf6eb;fill-rule:nonzero;"/><path d="M1270.938,1133.037c5.455,1.091 10.911,2.182 16.531,3.306c-1.091,5.455 -2.182,10.911 -3.306,16.531c-3.273,1.091 -6.546,2.182 -9.919,3.306c-3.273,-3.273 -6.546,-6.546 -9.919,-9.919c2.182,-4.364 4.364,-8.728 6.612,-13.225Z" style="fill:#467a2d;fill-rule:nonzero;"/><path d="M1188.282,1146.262l3.306,0l0,26.45c-2.182,-2.182 -4.364,-4.364 -6.612,-6.612c-3.273,1.637 -3.273,1.637 -6.612,3.306c6.199,-19.424 6.199,-19.424 9.919,-23.144Z" style="fill:#d8c99f;fill-rule:nonzero;"/></g></svg>