<svg xmlns="http://www.w3.org/2000/svg" xmlns:xlink="http://www.w3.org/1999/xlink" width="500" zoomAndPan="magnify" viewBox="0 0 375 374.999991" height="500" preserveAspectRatio="xMidYMid meet" version="1.0"><defs><g/><clipPath id="7f54496118"><rect x="0" width="355" y="0" height="282"/></clipPath></defs><g transform="matrix(1, 0, 0, 1, 11, 46)"><g clip-path="url(#7f54496118)"><g fill="#cdeac0" fill-opacity="0.4"><g transform="translate(13.44927, 232.946599)"><g><path d="M 174.375 -161.453125 L 104.484375 0 L 67.578125 0 L -2.078125 -161.453125 L 38.28125 -161.453125 L 87.421875 -46.125 L 137.234375 -161.453125 Z M 174.375 -161.453125 "/></g></g></g><g fill="#cdeac0" fill-opacity="0.4"><g transform="translate(173.526979, 232.946599)"><g><path d="M 52.59375 -131.015625 L 0.921875 -131.015625 L 0.921875 -161.453125 L 141.625 -161.453125 L 141.625 -131.015625 L 89.953125 -131.015625 L 89.953125 0 L 52.59375 0 Z M 52.59375 -131.015625 "/></g></g></g><g fill="#cdeac0" fill-opacity="0.4"><g transform="translate(299.475687, 232.946599)"><g><path d="M 30.21875 1.84375 C 23.914062 1.84375 18.609375 -0.304688 14.296875 -4.609375 C 9.992188 -8.921875 7.84375 -14.304688 7.84375 -20.765625 C 7.84375 -27.367188 9.992188 -32.707031 14.296875 -36.78125 C 18.609375 -40.863281 23.914062 -42.90625 30.21875 -42.90625 C 36.519531 -42.90625 41.820312 -40.863281 46.125 -36.78125 C 50.4375 -32.707031 52.59375 -27.367188 52.59375 -20.765625 C 52.59375 -14.304688 50.4375 -8.921875 46.125 -4.609375 C 41.820312 -0.304688 36.519531 1.84375 30.21875 1.84375 Z M 30.21875 1.84375 "/></g></g></g><g fill="#cdeac0" fill-opacity="1"><g transform="translate(3.255069, 222.752398)"><g><path d="M 174.375 -161.453125 L 104.484375 0 L 67.578125 0 L -2.078125 -161.453125 L 38.28125 -161.453125 L 87.421875 -46.125 L 137.234375 -161.453125 Z M 174.375 -161.453125 "/></g></g></g><g fill="#bacfb0" fill-opacity="1"><g transform="translate(163.332778, 222.752398)"><g><path d="M 52.59375 -131.015625 L 0.921875 -131.015625 L 0.921875 -161.453125 L 141.625 -161.453125 L 141.625 -131.015625 L 89.953125 -131.015625 L 89.953125 0 L 52.59375 0 Z M 52.59375 -131.015625 "/></g></g></g><g fill="#b59365" fill-opacity="1"><g transform="translate(289.281486, 222.752398)"><g><path d="M 30.21875 1.84375 C 23.914062 1.84375 18.609375 -0.304688 14.296875 -4.609375 C 9.992188 -8.921875 7.84375 -14.304688 7.84375 -20.765625 C 7.84375 -27.367188 9.992188 -32.707031 14.296875 -36.78125 C 18.609375 -40.863281 23.914062 -42.90625 30.21875 -42.90625 C 36.519531 -42.90625 41.820312 -40.863281 46.125 -36.78125 C 50.4375 -32.707031 52.59375 -27.367188 52.59375 -20.765625 C 52.59375 -14.304688 50.4375 -8.921875 46.125 -4.609375 C 41.820312 -0.304688 36.519531 1.84375 30.21875 1.84375 Z M 30.21875 1.84375 "/></g></g></g></g></g></svg>